<svg xmlns="http://www.w3.org/2000/svg" xmlns:xlink="http://www.w3.org/1999/xlink" width="500" zoomAndPan="magnify" viewBox="0 0 375 374.999991" height="500" preserveAspectRatio="xMidYMid meet" version="1.0"><defs><clipPath id="498a28ce43"><path d="M 22 5.273438 L 353 5.273438 L 353 187 L 22 187 Z M 22 5.273438 " clip-rule="nonzero"/></clipPath></defs><path fill="#9fef00" d="M 344.460938 73.523438 C 349.5 76.488281 352.59375 81.894531 352.59375 87.738281 L 352.59375 276.234375 C 352.59375 282.441406 349.105469 288.125 343.566406 290.9375 L 195.0625 366.335938 C 189.945312 368.933594 183.847656 368.6875 178.960938 365.6875 C 174.070312 362.6875 171.089844 357.367188 171.089844 351.628906 L 171.089844 170.207031 C 171.089844 164.214844 174.335938 158.695312 179.578125 155.785156 L 328.082031 73.320312 C 333.191406 70.484375 339.421875 70.558594 344.460938 73.523438 Z M 204.089844 179.910156 L 204.089844 324.753906 L 319.59375 266.113281 L 319.59375 115.769531 Z M 204.089844 179.910156 " fill-opacity="1" fill-rule="evenodd"/><g clip-path="url(#498a28ce43)"><path fill="#9fef00" d="M 180.886719 6.695312 C 185.152344 4.800781 190.023438 4.800781 194.289062 6.695312 L 342.792969 72.667969 C 348.511719 75.207031 352.300781 80.757812 352.578125 87.007812 C 352.855469 93.253906 349.574219 99.121094 344.105469 102.15625 L 195.601562 184.625 C 190.617188 187.390625 184.558594 187.390625 179.578125 184.625 L 31.070312 102.15625 C 25.605469 99.121094 22.324219 93.253906 22.601562 87.007812 C 22.878906 80.757812 26.667969 75.207031 32.382812 72.667969 Z M 76.019531 89.378906 L 187.589844 151.335938 L 299.160156 89.378906 L 187.589844 39.816406 Z M 76.019531 89.378906 " fill-opacity="1" fill-rule="evenodd"/></g><path fill="#9fef00" d="M 30.71875 73.523438 C 25.679688 76.488281 22.585938 81.894531 22.585938 87.738281 L 22.585938 276.234375 C 22.585938 282.441406 26.074219 288.125 31.613281 290.9375 L 180.117188 366.335938 C 185.230469 368.933594 191.328125 368.6875 196.21875 365.6875 C 201.109375 362.6875 204.089844 357.367188 204.089844 351.628906 L 204.089844 170.207031 C 204.089844 164.214844 200.839844 158.695312 195.601562 155.785156 L 47.097656 73.320312 C 41.988281 70.484375 35.757812 70.558594 30.71875 73.523438 Z M 171.089844 179.910156 L 171.089844 324.753906 L 55.585938 266.113281 L 55.585938 115.769531 Z M 171.089844 179.910156 " fill-opacity="1" fill-rule="evenodd"/></svg>