<svg xmlns="http://www.w3.org/2000/svg" xmlns:xlink="http://www.w3.org/1999/xlink" width="500" zoomAndPan="magnify" viewBox="0 0 375 374.999991" height="500" preserveAspectRatio="xMidYMid meet" version="1.0"><defs><clipPath id="cd621927b8"><path d="M 92 166 L 255 166 L 255 328.269531 L 92 328.269531 Z M 92 166 " clip-rule="nonzero"/></clipPath><clipPath id="0699d5e811"><path d="M 0 47.046875 L 162 47.046875 L 162 209 L 0 209 Z M 0 47.046875 " clip-rule="nonzero"/></clipPath></defs><rect x="-37.5" width="450" fill="#ffffff" y="-37.499999" height="449.999989" fill-opacity="1"/><rect x="-37.5" width="450" fill="#ffffff" y="-37.499999" height="449.999989" fill-opacity="1"/><g clip-path="url(#cd621927b8)"><path fill="#004f92" d="M 173.453125 296.792969 C 146.335938 296.792969 124.277344 274.710938 124.277344 247.570312 C 124.277344 220.425781 146.335938 198.34375 173.453125 198.34375 C 200.566406 198.34375 222.625 220.425781 222.625 247.570312 C 222.625 274.710938 200.566406 296.792969 173.453125 296.792969 Z M 250.429688 219.6875 L 229.167969 221.707031 C 227.613281 218.363281 225.792969 215.175781 223.691406 212.1875 L 236.074219 194.757812 C 233.070312 191.191406 229.769531 187.890625 226.207031 184.882812 L 208.796875 197.277344 C 205.808594 195.171875 202.628906 193.347656 199.285156 191.792969 L 201.304688 170.511719 C 196.960938 168.933594 192.46875 167.699219 187.828125 166.871094 L 178.949219 186.316406 C 177.132812 186.152344 175.304688 186.039062 173.453125 186.039062 C 171.59375 186.039062 169.769531 186.152344 167.953125 186.316406 L 159.070312 166.871094 C 154.429688 167.699219 149.9375 168.933594 145.597656 170.511719 L 147.617188 191.792969 C 144.273438 193.347656 141.089844 195.171875 138.105469 197.277344 L 120.691406 184.882812 C 117.132812 187.890625 113.832031 191.191406 110.828125 194.757812 L 123.210938 212.1875 C 121.109375 215.175781 119.285156 218.363281 117.730469 221.707031 L 96.472656 219.6875 C 94.894531 224.03125 93.664062 228.527344 92.839844 233.175781 L 112.261719 242.066406 C 112.097656 243.882812 111.984375 245.714844 111.984375 247.570312 C 111.984375 249.425781 112.097656 251.253906 112.261719 253.070312 L 92.839844 261.960938 C 93.664062 266.609375 94.894531 271.105469 96.472656 275.449219 L 117.730469 273.429688 C 119.285156 276.777344 121.109375 279.964844 123.210938 282.953125 L 110.828125 300.382812 C 113.832031 303.945312 117.132812 307.25 120.691406 310.257812 L 138.105469 297.859375 C 141.089844 299.964844 144.273438 301.792969 147.617188 303.347656 L 145.597656 324.628906 C 149.9375 326.207031 154.429688 327.4375 159.070312 328.265625 L 167.953125 308.824219 C 169.769531 308.984375 171.59375 309.101562 173.453125 309.101562 C 175.304688 309.101562 177.132812 308.984375 178.949219 308.824219 L 187.828125 328.265625 C 192.46875 327.4375 196.960938 326.207031 201.304688 324.628906 L 199.285156 303.347656 C 202.628906 301.792969 205.8125 299.964844 208.796875 297.859375 L 226.207031 310.257812 C 229.769531 307.25 233.070312 303.945312 236.074219 300.382812 L 223.691406 282.953125 C 225.792969 279.964844 227.617188 276.777344 229.167969 273.429688 L 250.429688 275.449219 C 252.007812 271.105469 253.238281 266.609375 254.0625 261.960938 L 234.640625 253.070312 C 234.800781 251.253906 234.917969 249.425781 234.917969 247.570312 C 234.917969 245.714844 234.800781 243.882812 234.640625 242.066406 L 254.0625 233.175781 C 253.238281 228.527344 252.007812 224.03125 250.429688 219.6875 " fill-opacity="1" fill-rule="nonzero"/></g><path fill="#004f92" d="M 173.453125 272.183594 C 159.894531 272.183594 148.863281 261.140625 148.863281 247.570312 C 148.863281 233.996094 159.894531 222.957031 173.453125 222.957031 C 187.011719 222.957031 198.039062 233.996094 198.039062 247.570312 C 198.039062 261.140625 187.011719 272.183594 173.453125 272.183594 Z M 173.453125 206.546875 C 150.855469 206.546875 132.472656 224.949219 132.472656 247.570312 C 132.472656 270.1875 150.855469 288.589844 173.453125 288.589844 C 196.046875 288.589844 214.429688 270.1875 214.429688 247.570312 C 214.429688 224.949219 196.046875 206.546875 173.453125 206.546875 " fill-opacity="1" fill-rule="nonzero"/><g clip-path="url(#0699d5e811)"><path fill="#004f92" d="M 80.609375 176.964844 C 53.496094 176.964844 31.433594 154.882812 31.433594 127.738281 C 31.433594 100.597656 53.496094 78.511719 80.609375 78.511719 C 107.722656 78.511719 129.785156 100.597656 129.785156 127.738281 C 129.785156 154.882812 107.722656 176.964844 80.609375 176.964844 Z M 108.460938 204.796875 L 106.441406 183.511719 C 109.785156 181.957031 112.972656 180.132812 115.953125 178.027344 L 133.367188 190.425781 C 136.925781 187.417969 140.226562 184.113281 143.230469 180.546875 L 130.847656 163.121094 C 132.949219 160.132812 134.773438 156.945312 136.328125 153.597656 L 157.585938 155.621094 C 159.164062 151.273438 160.394531 146.777344 161.222656 142.132812 L 141.796875 133.238281 C 141.960938 131.421875 142.074219 129.59375 142.074219 127.738281 C 142.074219 125.882812 141.960938 124.050781 141.796875 122.234375 L 161.222656 113.34375 C 160.394531 108.695312 159.164062 104.199219 157.585938 99.855469 L 136.328125 101.878906 C 134.773438 98.53125 132.949219 95.34375 130.847656 92.355469 L 143.230469 74.925781 C 140.226562 71.363281 136.925781 68.054688 133.367188 65.050781 L 115.953125 77.449219 C 112.96875 75.34375 109.785156 73.515625 106.441406 71.964844 L 108.460938 50.679688 C 104.121094 49.101562 99.628906 47.867188 94.988281 47.042969 L 86.105469 66.484375 C 84.289062 66.320312 82.464844 66.207031 80.609375 66.207031 C 78.753906 66.207031 76.925781 66.320312 75.113281 66.484375 L 66.230469 47.042969 C 61.589844 47.867188 57.097656 49.101562 52.757812 50.679688 L 54.773438 71.964844 C 51.433594 73.515625 48.25 75.34375 45.261719 77.449219 L 27.851562 65.050781 C 24.292969 68.054688 20.992188 71.363281 17.988281 74.925781 L 30.371094 92.355469 C 28.269531 95.34375 26.445312 98.53125 24.890625 101.878906 L 3.632812 99.855469 C 2.054688 104.199219 0.824219 108.695312 -0.00390625 113.34375 L 19.417969 122.234375 C 19.257812 124.050781 19.140625 125.882812 19.140625 127.738281 C 19.140625 129.59375 19.257812 131.421875 19.417969 133.238281 L -0.00390625 142.132812 C 0.824219 146.777344 2.054688 151.273438 3.632812 155.621094 L 24.890625 153.597656 C 26.441406 156.945312 28.269531 160.132812 30.371094 163.121094 L 17.988281 180.546875 C 20.992188 184.113281 24.292969 187.417969 27.851562 190.425781 L 45.261719 178.027344 C 48.246094 180.132812 51.433594 181.957031 54.773438 183.511719 L 52.757812 204.796875 C 57.097656 206.375 61.589844 207.605469 66.230469 208.433594 L 75.113281 188.992188 C 76.925781 189.152344 78.753906 189.269531 80.609375 189.269531 C 82.464844 189.269531 84.289062 189.152344 86.105469 188.992188 L 94.988281 208.433594 C 99.628906 207.605469 104.121094 206.375 108.460938 204.796875 " fill-opacity="1" fill-rule="nonzero"/></g><path fill="#004f92" d="M 80.609375 144.144531 C 71.570312 144.144531 64.21875 136.785156 64.21875 127.734375 C 64.21875 118.6875 71.570312 111.328125 80.609375 111.328125 C 89.648438 111.328125 97 118.6875 97 127.734375 C 97 136.785156 89.648438 144.144531 80.609375 144.144531 Z M 80.609375 103.125 C 67.050781 103.125 56.023438 114.164062 56.023438 127.734375 C 56.023438 141.308594 67.050781 152.347656 80.609375 152.347656 C 94.167969 152.347656 105.199219 141.308594 105.199219 127.734375 C 105.199219 114.164062 94.167969 103.125 80.609375 103.125 " fill-opacity="1" fill-rule="nonzero"/><path fill="#004f92" d="M 294.390625 204.296875 C 267.277344 204.296875 245.21875 182.214844 245.21875 155.074219 C 245.21875 127.929688 267.277344 105.847656 294.390625 105.847656 C 321.503906 105.847656 343.5625 127.929688 343.5625 155.074219 C 343.5625 182.214844 321.503906 204.296875 294.390625 204.296875 Z M 355.855469 155.074219 C 355.855469 153.214844 355.742188 151.386719 355.582031 149.570312 L 375.003906 140.679688 C 374.175781 136.03125 372.945312 131.535156 371.367188 127.191406 L 350.109375 129.210938 C 348.554688 125.867188 346.730469 122.679688 344.628906 119.691406 L 357.011719 102.261719 C 354.007812 98.695312 350.707031 95.390625 347.148438 92.382812 L 329.734375 104.78125 C 326.753906 102.675781 323.566406 100.851562 320.222656 99.296875 L 322.242188 78.011719 C 317.90625 76.4375 313.410156 75.203125 308.765625 74.375 L 299.886719 93.820312 C 298.074219 93.65625 296.246094 93.542969 294.390625 93.542969 C 292.535156 93.542969 290.707031 93.65625 288.890625 93.820312 L 280.011719 74.375 C 275.371094 75.203125 270.875 76.4375 266.535156 78.011719 L 268.558594 99.296875 C 265.214844 100.851562 262.027344 102.675781 259.042969 104.78125 L 241.628906 92.382812 C 238.074219 95.390625 234.769531 98.695312 231.769531 102.261719 L 244.152344 119.691406 C 242.050781 122.679688 240.226562 125.867188 238.671875 129.210938 L 217.410156 127.191406 C 215.835938 131.535156 214.605469 136.03125 213.777344 140.679688 L 233.199219 149.570312 C 233.035156 151.386719 232.921875 153.214844 232.921875 155.074219 C 232.921875 156.929688 233.035156 158.757812 233.199219 160.574219 L 213.777344 169.46875 C 214.605469 174.113281 215.835938 178.609375 217.410156 182.953125 L 238.671875 180.933594 C 240.222656 184.277344 242.050781 187.46875 244.152344 190.457031 L 231.769531 207.886719 C 234.769531 211.449219 238.074219 214.753906 241.628906 217.761719 L 259.042969 205.363281 C 262.027344 207.46875 265.214844 209.292969 268.558594 210.851562 L 266.535156 232.128906 C 270.875 233.710938 275.371094 234.941406 280.011719 235.769531 L 288.890625 216.328125 C 290.707031 216.488281 292.535156 216.605469 294.390625 216.605469 C 296.246094 216.605469 298.074219 216.488281 299.886719 216.328125 L 308.765625 235.769531 C 313.410156 234.941406 317.90625 233.710938 322.242188 232.128906 L 320.222656 210.851562 C 323.566406 209.292969 326.753906 207.46875 329.734375 205.363281 L 347.148438 217.761719 C 350.707031 214.753906 354.007812 211.449219 357.011719 207.886719 L 344.628906 190.457031 C 346.730469 187.46875 348.558594 184.277344 350.109375 180.933594 L 371.367188 182.953125 C 372.945312 178.609375 374.175781 174.113281 375.003906 169.46875 L 355.582031 160.574219 C 355.742188 158.757812 355.855469 156.929688 355.855469 155.074219 " fill-opacity="1" fill-rule="nonzero"/><path fill="#004f92" d="M 294.390625 171.484375 C 285.351562 171.484375 278 164.121094 278 155.070312 C 278 146.023438 285.351562 138.664062 294.390625 138.664062 C 303.425781 138.664062 310.78125 146.023438 310.78125 155.070312 C 310.78125 164.121094 303.425781 171.484375 294.390625 171.484375 Z M 294.390625 122.253906 C 276.316406 122.253906 261.605469 136.976562 261.605469 155.070312 C 261.605469 173.167969 276.316406 187.890625 294.390625 187.890625 C 312.46875 187.890625 327.171875 173.167969 327.171875 155.070312 C 327.171875 136.976562 312.46875 122.253906 294.390625 122.253906 " fill-opacity="1" fill-rule="nonzero"/></svg>